<svg xmlns="http://www.w3.org/2000/svg" width="1024" height="640"><path d="M0 0h1024v640H0V0z" fill="#FEFEFE"/><path d="M304.198 128.71l2.354-.02c2.546-.02 5.093-.024 7.64-.026l5.373-.02c3.75-.012 7.499-.016 11.249-.015 4.765 0 9.53-.027 14.294-.061 3.7-.023 7.4-.026 11.101-.025 1.755-.003 3.51-.011 5.264-.027 20.128-.163 37.06 3.963 52.129 18.277 12.338 11.354 26.79 16.703 43.415 16.565l3.552.008c3.227.003 6.453-.006 9.68-.021 3.49-.013 6.98-.009 10.47-.006 6.041.002 12.082-.006 18.123-.02 8.747-.02 17.494-.018 26.24-.01 14.211.015 28.422.02 42.633.015h2.574c12.054-.005 24.109-.019 36.163-.035l2.572-.004 2.57-.004c14.157-.019 28.314-.015 42.471.007 8.72.013 17.441.007 26.162-.024 5.979-.02 11.958-.019 17.937 0 3.445.01 6.889.01 10.333-.016 3.745-.024 7.487-.01 11.232.013l3.257-.048c9.877.132 19.18 4.137 26.483 10.885 5.597 6.954 8.652 15.07 8.66 23.943l.01 3.022-.005 3.297.007 3.52c.005 3.222.006 6.442.004 9.663 0 3.475.006 6.95.01 10.426.009 6.807.011 13.615.012 20.423 0 5.534.003 11.07.006 16.604.009 15.696.013 31.392.012 47.088v5.131c0 13.725.01 27.45.023 41.176.015 14.097.022 28.194.02 42.291 0 7.913.003 15.826.014 23.738.01 6.738.011 13.476.005 20.214-.004 3.436-.004 6.872.005 10.308.008 3.73.003 7.46-.005 11.19l.016 3.27c-.05 10.748-1.742 21.281-9.052 29.645-7.217 6.728-15.59 10.108-25.39 10.087l-2.241.007c-2.498.007-4.997.007-7.495.006l-5.404.011c-4.966.01-9.932.014-14.898.017-5.35.004-10.7.013-16.05.022-12.928.02-25.857.03-38.786.039l-18.259.015a125603.615 125603.615 0 01-76.444.044l-3.955.002c-21.145.008-42.29.033-63.433.066-21.703.033-43.405.05-65.107.054-12.187.002-24.374.01-36.562.036-10.38.022-20.76.03-31.14.02a3513.64 3513.64 0 00-15.886.017c-4.85.018-9.702.017-14.553.001-1.752-.002-3.503.002-5.255.014-12.732.081-23.742-.875-33.341-10.095-8.78-10.518-9.162-21.26-9.152-34.288l-.01-3.942c-.007-3.6-.01-7.2-.01-10.8-.002-3.887-.01-7.774-.016-11.661-.014-8.494-.02-16.988-.024-25.482-.003-5.306-.007-10.613-.012-15.919-.012-14.7-.022-29.4-.026-44.1v-2.85-2.855l-.002-5.728v-2.87c-.005-15.347-.022-30.694-.046-46.041-.023-15.768-.036-31.535-.037-47.302 0-8.849-.007-17.697-.025-26.545-.015-7.535-.02-15.069-.012-22.603.004-3.842.003-7.683-.011-11.524-.015-4.172-.007-8.342.004-12.514l-.025-3.65c.072-12.258 2.29-21.697 11.126-30.455 7.99-7.212 16.862-9.585 27.464-9.572z" fill="#1A99F5"/><path d="M304.198 128.71l2.354-.02c2.546-.02 5.093-.024 7.64-.026l5.373-.02c3.75-.012 7.499-.016 11.249-.015 4.765 0 9.53-.027 14.294-.061 3.7-.023 7.4-.026 11.101-.025 1.755-.003 3.51-.011 5.264-.027 20.128-.163 37.06 3.963 52.129 18.277 12.338 11.354 26.79 16.703 43.415 16.565l3.552.008c3.227.003 6.453-.006 9.68-.021 3.49-.013 6.98-.009 10.47-.006 6.041.002 12.082-.006 18.123-.02 8.747-.02 17.494-.018 26.24-.01 14.211.015 28.422.02 42.633.015h2.574c12.054-.005 24.109-.019 36.163-.035l2.572-.004 2.57-.004c14.157-.019 28.314-.015 42.471.007 8.72.013 17.441.007 26.162-.024 5.979-.02 11.958-.019 17.937 0 3.445.01 6.889.01 10.333-.016 3.745-.024 7.487-.01 11.232.013l3.257-.048c9.877.132 19.18 4.137 26.483 10.885 5.605 6.963 8.658 15.084 8.654 23.968l.006 3.039-.009 3.316.003 3.54c.001 3.238-.002 6.476-.007 9.714-.004 3.494-.003 6.987-.002 10.48 0 6.052-.003 12.103-.008 18.154-.008 8.75-.011 17.499-.012 26.248-.002 14.195-.01 28.39-.019 42.585-.009 13.79-.016 27.578-.02 41.368v2.575l-.005 12.793c-.01 35.374-.028 70.748-.05 106.122h-1v-1.66a52972.826 52972.826 0 00-.153-109.094l-.005-2.352c-.026-12.567-.035-25.134-.038-37.7-.003-12.894-.025-25.787-.065-38.68-.023-7.958-.032-15.914-.023-23.871.006-6.1-.014-12.2-.044-18.3-.008-2.503-.008-5.007.001-7.51.012-3.414-.007-6.827-.034-10.24l.033-3.014c-.066-4.448-.206-7.608-3.024-11.179-4.212-3.818-7.969-3.547-13.366-3.543l-2.418-.01c-2.697-.01-5.393-.012-8.09-.014l-5.831-.018c-5.36-.016-10.719-.025-16.078-.034-4.593-.008-9.185-.02-13.777-.031a46671.191 46671.191 0 00-53.282-.1 114175.52 114175.52 0 00-94.253-.11l-2.132-.002c-22.817-.02-45.634-.067-68.451-.127-24.119-.063-48.237-.1-72.356-.11-13.15-.006-26.298-.024-39.447-.072a6876.11 6876.11 0 00-33.59-.043c-5.714.006-11.428.002-17.143-.034-5.23-.032-10.46-.032-15.69-.006-1.893.004-3.786-.005-5.68-.026-11.172-.434-11.172-.434-21.18 3.764-3.95 4.487-3.997 9.07-3.884 14.828l-.033 3.236c-.027 3.572.003 7.142.033 10.714-.008 2.562-.019 5.125-.033 7.688-.023 5.514-.022 11.027.002 16.541.034 7.972.024 15.944.004 23.916-.033 12.935-.03 25.87-.004 38.805.025 12.563.033 25.126.019 37.689l-.003 2.347-.014 11.661c-.042 32.23-.025 64.46.029 96.691h-1a132531.365 132531.365 0 01-.165-135.687l-.002-2.882c-.013-15.393-.037-30.786-.064-46.178a34056.7 34056.7 0 01-.051-47.397c-.004-9.745-.017-19.49-.042-29.236-.016-6.687-.02-13.373-.017-20.06.002-3.855 0-7.71-.017-11.566a2057.12 2057.12 0 01-.003-12.56l-.026-3.665c.064-12.273 2.273-21.72 11.121-30.488 7.99-7.212 16.862-9.585 27.464-9.572z" fill="#1DAAF7"/><path d="M304.416 190.62l2.208-.014c2.444-.012 4.887-.003 7.33.006 1.77-.004 3.538-.01 5.307-.016 4.863-.014 9.725-.01 14.587-.003 5.244.005 10.487-.008 15.73-.018 10.273-.017 20.546-.018 30.82-.013 8.348.004 16.697.003 25.046-.002l3.598-.003 7.237-.004c22.631-.014 45.263-.009 67.894.003 20.71.01 41.42-.003 62.13-.027 21.257-.024 42.515-.034 63.773-.027 11.938.003 23.875 0 35.813-.017a9635.05 9635.05 0 0130.487.002c5.186.009 10.371.011 15.557-.004 4.747-.014 9.494-.01 14.241.01 1.718.004 3.435 0 5.152-.01 16.002-.09 16.002-.09 22.674 4.517 4.205 4.599 3 7.04 3 14H287c0-10.579 0-10.579 4-15 4.604-2.813 8.058-3.376 13.416-3.38z" fill="#FAFDFE"/></svg>